<?xml version="1.0" standalone="no"?>
<!DOCTYPE svg PUBLIC "-//W3C//DTD SVG 20010904//EN"
 "http://www.w3.org/TR/2001/REC-SVG-20010904/DTD/svg10.dtd">
<svg version="1.0" xmlns="http://www.w3.org/2000/svg"
 width="500.000000pt" height="500.000000pt" viewBox="0 0 500.000000 500.000000"
 preserveAspectRatio="xMidYMid meet">
<metadata>
Created by potrace 1.11, written by Peter Selinger 2001-2013
</metadata>
<g transform="translate(0.000000,500.000000) scale(0.100000,-0.100000)"
fill="#000000" stroke="none">
<path d="M2225 4994 c-341 -47 -578 -118 -844 -250 -266 -132 -469 -281 -682
-501 -203 -210 -336 -400 -460 -658 -104 -219 -168 -419 -216 -680 -26 -146
-26 -664 0 -810 48 -261 112 -461 216 -680 124 -258 257 -448 460 -658 383
-395 832 -631 1396 -734 146 -26 664 -26 810 0 452 83 836 255 1170 524 127
102 329 311 426 439 201 266 351 580 429 894 60 242 65 290 65 620 0 330 -5
378 -65 620 -78 314 -228 628 -429 894 -97 128 -299 337 -426 439 -272 219
-609 389 -938 473 -229 58 -293 66 -597 69 -157 2 -298 1 -315 -1z m562 -79
c555 -73 1053 -314 1433 -695 627 -626 864 -1563 610 -2412 -310 -1037 -1250
-1738 -2330 -1738 -645 0 -1268 257 -1720 710 -627 626 -864 1563 -610 2412
279 934 1053 1589 2036 1722 139 19 437 19 581 1z"/>
<path d="M2965 4719 c-71 -72 -200 -168 -271 -200 -106 -48 -167 -59 -342 -59
-89 0 -185 -5 -214 -11 -113 -24 -229 -93 -350 -207 -99 -94 -202 -242 -181
-263 4 -4 56 16 115 45 130 65 218 81 402 74 283 -12 421 39 625 229 165 152
332 420 276 440 -6 2 -33 -20 -60 -48z"/>
<path d="M3196 4459 c-39 -46 -44 -78 -16 -101 15 -12 30 -16 44 -12 19 6 19
6 5 -17 -21 -32 -102 -93 -167 -127 -63 -32 -54 -39 22 -17 135 39 247 186
210 274 -18 43 -62 43 -98 0z"/>
<path d="M1179 4152 c-66 -83 -79 -107 -79 -145 0 -44 20 -70 50 -65 24 3 88
73 77 84 -4 4 -15 -4 -26 -17 -16 -20 -21 -21 -35 -10 -19 16 -20 67 -3 98 7
12 29 39 50 62 40 43 44 51 25 51 -7 0 -33 -26 -59 -58z"/>
<path d="M3615 4171 c-8 -15 3 -31 21 -31 9 0 14 7 12 17 -4 20 -24 28 -33 14z"/>
<path d="M3170 3983 c-46 -49 -92 -104 -105 -123 l-22 -34 82 -83 c87 -88 104
-95 162 -70 29 12 80 64 121 124 15 21 22 46 22 79 0 46 -2 49 -76 121 -41 40
-81 73 -89 73 -7 0 -50 -39 -95 -87z"/>
<path d="M2784 3967 c-66 -72 -147 -166 -156 -182 -9 -14 121 -151 164 -174
24 -12 30 -11 65 10 21 13 44 29 50 35 7 7 16 14 21 16 19 8 85 123 89 157 4
32 0 43 -28 76 -35 39 -131 115 -147 115 -5 0 -31 -24 -58 -53z"/>
<path d="M2232 3772 c-43 -91 -107 -273 -131 -369 -12 -49 -24 -146 -31 -258
-18 -302 -21 -347 -31 -431 -27 -236 -121 -381 -394 -609 -133 -111 -144 -122
-120 -131 23 -9 141 3 201 21 28 8 70 28 93 45 113 82 245 341 329 645 44 156
63 303 97 735 15 194 30 340 41 393 11 53 -22 28 -54 -41z"/>
<path d="M3942 3814 c-15 -31 -1 -61 33 -74 19 -7 26 -19 31 -50 4 -22 10 -40
15 -40 5 0 15 24 24 54 9 29 24 61 34 70 17 15 20 15 34 1 21 -20 26 -19 36 8
9 23 -11 57 -34 57 -15 0 -48 -37 -68 -74 -14 -29 -15 -29 -21 -8 -8 25 -54
82 -65 82 -4 0 -13 -12 -19 -26z"/>
<path d="M824 3729 c-8 -14 11 -33 25 -25 6 4 11 14 11 22 0 16 -26 19 -36 3z"/>
<path d="M3621 3710 c-16 -9 -6 -30 15 -30 15 0 20 25 6 34 -4 2 -14 1 -21 -4z"/>
<path d="M1747 3616 c-12 -13 -27 -30 -32 -38 -7 -8 -9 -59 -7 -137 4 -130 -6
-228 -38 -351 -27 -108 -32 -124 -40 -135 -4 -5 -11 -25 -15 -43 -17 -79 -182
-284 -290 -359 -55 -38 -196 -105 -211 -99 -8 3 -14 2 -14 -3 0 -15 -126 -41
-227 -47 -277 -18 -467 91 -513 295 -14 58 -8 217 10 286 21 77 63 190 76 206
8 8 14 21 14 28 0 11 29 80 51 123 5 10 5 19 0 23 -6 3 -24 -16 -42 -42 -18
-27 -39 -52 -46 -56 -7 -5 -11 -13 -7 -18 3 -6 -1 -18 -9 -27 -17 -20 -94
-182 -102 -217 -2 -5 -10 -37 -20 -70 -30 -108 -44 -208 -44 -331 -1 -142 19
-252 60 -337 32 -68 98 -157 115 -157 6 0 23 -11 38 -25 15 -14 35 -25 46 -25
10 0 20 -5 22 -12 5 -15 24 -17 183 -24 123 -6 135 -5 215 21 215 70 392 186
499 326 24 30 51 61 62 67 11 7 17 16 15 21 -3 5 5 19 18 32 13 13 33 44 45
69 12 25 28 56 35 70 79 138 172 459 212 725 15 104 20 257 9 275 -11 18 -45
11 -68 -14z"/>
<path d="M4306 3481 c-7 -11 18 -33 27 -24 4 3 7 12 7 20 0 15 -26 18 -34 4z"/>
<path d="M2934 3415 c-17 -7 -47 -32 -68 -56 -40 -47 -129 -223 -167 -330 -22
-64 -22 -67 -5 -94 38 -59 152 -83 214 -45 18 11 38 20 46 20 19 0 46 -33 46
-57 0 -30 -73 -91 -154 -128 -274 -126 -527 -370 -831 -800 -156 -221 -222
-303 -345 -425 -148 -149 -245 -229 -359 -296 -103 -60 -168 -115 -157 -133 5
-8 19 -11 35 -8 39 8 227 100 297 145 135 87 343 287 438 420 21 28 41 52 45
52 4 0 41 46 82 102 200 277 336 405 533 503 164 81 292 158 356 213 28 24 74
82 106 135 129 207 169 376 138 580 -7 43 -62 122 -118 166 -21 17 -39 31 -40
31 -1 0 -15 4 -32 9 -21 6 -40 5 -60 -4z"/>
<path d="M1013 3364 c-26 -31 -72 -83 -100 -115 -29 -32 -53 -63 -53 -68 0 -6
30 -31 68 -57 37 -27 82 -61 100 -76 49 -42 74 -37 137 28 97 100 113 162 60
233 -29 40 -123 111 -146 111 -9 0 -39 -25 -66 -56z"/>
<path d="M4065 3241 c-8 -15 3 -31 21 -31 9 0 14 7 12 17 -4 20 -24 28 -33 14z"/>
<path d="M3614 3172 c-43 -51 -56 -78 -52 -110 4 -38 39 -41 67 -6 12 15 19
30 16 33 -4 3 -10 -1 -15 -8 -11 -19 -40 -6 -40 19 0 11 16 37 35 59 19 21 35
41 35 45 0 14 -17 2 -46 -32z"/>
<path d="M4378 3027 c-24 -144 -78 -219 -119 -166 -15 20 -21 22 -36 13 -28
-17 -23 -57 8 -68 95 -33 174 82 167 246 l-3 73 -17 -98z"/>
<path d="M3812 2638 c7 -19 38 -22 38 -4 0 10 -9 16 -21 16 -12 0 -19 -5 -17
-12z"/>
<path d="M4642 2638 c7 -19 38 -22 38 -4 0 10 -9 16 -21 16 -12 0 -19 -5 -17
-12z"/>
<path d="M3252 2483 c-7 -2 -34 -51 -61 -106 -53 -112 -86 -151 -166 -197 -63
-36 -209 -162 -257 -222 -93 -115 -170 -271 -193 -391 -59 -307 -65 -404 -45
-790 8 -154 14 -195 30 -225 10 -20 19 -35 20 -32 0 3 2 79 5 170 15 538 30
741 61 845 33 111 92 195 196 279 89 72 163 109 306 152 155 47 285 103 309
134 36 44 113 207 122 256 13 66 -3 79 -124 102 -122 24 -186 32 -203 25z"/>
<path d="M3078 2423 c7 -3 16 -2 19 1 4 3 -2 6 -13 5 -11 0 -14 -3 -6 -6z"/>
<path d="M3984 2255 c-4 -8 4 -36 15 -61 24 -50 30 -111 18 -161 -15 -58 11
-37 29 22 18 63 13 118 -17 178 -20 39 -36 47 -45 22z"/>
<path d="M4502 2127 c-95 -72 -170 -132 -168 -135 3 -3 16 2 28 10 13 8 41 21
63 28 60 19 147 61 176 84 14 12 40 32 57 45 25 18 32 32 32 57 0 18 -3 35 -7
37 -5 2 -86 -55 -181 -126z"/>
<path d="M3721 2031 c-37 -57 -101 -197 -101 -221 0 -9 -4 -20 -9 -25 -9 -10
-22 -78 -42 -220 -55 -394 -82 -465 -197 -528 -48 -26 -172 -49 -172 -32 0 4
18 44 40 88 60 124 67 156 105 517 9 80 25 182 35 228 23 98 23 92 9 92 -17 0
-99 -188 -124 -285 -27 -103 -40 -187 -55 -363 -14 -153 -39 -241 -80 -276
-36 -30 -38 -60 -9 -117 27 -54 69 -72 138 -59 128 24 222 115 296 286 l31 72
29 -35 c62 -78 179 -94 270 -36 25 15 79 67 120 116 42 48 86 93 98 101 12 8
49 17 82 19 76 7 97 15 170 69 33 24 81 52 107 62 30 11 62 34 84 59 64 74
131 244 107 268 -9 9 -19 0 -40 -36 -53 -91 -71 -107 -112 -101 -33 6 -38 3
-61 -29 -14 -19 -43 -47 -64 -62 -35 -25 -48 -28 -117 -28 -81 0 -78 1 -149
-63 -42 -39 -81 -54 -147 -60 -133 -10 -207 37 -238 153 -17 62 -18 80 -6 219
6 83 19 175 27 204 22 75 13 83 -25 23z"/>
<path d="M4305 1980 c-3 -5 -1 -10 4 -10 6 0 11 5 11 10 0 6 -2 10 -4 10 -3 0
-8 -4 -11 -10z"/>
<path d="M693 1807 c-26 -38 -53 -110 -53 -142 0 -35 37 -75 70 -75 36 0 94
48 108 89 9 24 7 33 -9 50 -11 12 -29 21 -40 21 -19 0 -69 -44 -69 -61 0 -5
-4 -9 -10 -9 -17 0 -11 74 10 115 25 48 21 54 -7 12z m62 -147 c-3 -5 -13 -10
-21 -10 -8 0 -12 5 -9 10 3 6 13 10 21 10 8 0 12 -4 9 -10z"/>
<path d="M2315 1780 c-3 -5 1 -10 10 -10 9 0 13 5 10 10 -3 6 -8 10 -10 10 -2
0 -7 -4 -10 -10z"/>
<path d="M985 1560 c-8 -14 3 -30 21 -30 8 0 14 9 14 20 0 21 -24 28 -35 10z"/>
<path d="M870 1200 c0 -11 7 -20 15 -20 8 0 15 9 15 20 0 11 -7 20 -15 20 -8
0 -15 -9 -15 -20z"/>
<path d="M1762 1043 c4 -21 33 -25 33 -3 0 8 -8 16 -18 18 -14 3 -18 -1 -15
-15z"/>
<path d="M4064 929 c-10 -17 13 -36 27 -22 12 12 4 33 -11 33 -5 0 -12 -5 -16
-11z"/>
<path d="M1107 884 c-14 -14 -7 -35 11 -32 9 2 17 10 17 17 0 16 -18 25 -28
15z"/>
<path d="M3665 774 c-12 -115 -60 -184 -96 -140 -16 19 -19 20 -34 5 -36 -36
24 -75 74 -48 14 8 36 33 47 56 25 48 41 170 26 185 -7 7 -13 -13 -17 -58z"/>
<path d="M2165 801 c-8 -15 3 -31 21 -31 9 0 14 7 12 17 -4 20 -24 28 -33 14z"/>
<path d="M1801 774 c-10 -22 -9 -31 4 -50 8 -13 22 -24 30 -24 9 0 20 -17 27
-45 7 -25 15 -45 19 -45 4 0 13 17 19 38 30 97 46 115 76 85 13 -14 17 -14 25
-2 13 20 7 50 -13 63 -21 13 -60 -20 -79 -66 l-12 -30 -15 28 c-16 32 -52 74
-62 74 -4 0 -12 -12 -19 -26z"/>
<path d="M1544 729 c-10 -17 13 -36 27 -22 12 12 4 33 -11 33 -5 0 -12 -5 -16
-11z"/>
<path d="M2940 528 c-26 -58 -25 -93 2 -112 29 -21 31 -20 67 10 34 29 43 77
15 88 -22 9 -23 9 -49 -20 l-25 -27 0 26 c0 14 4 37 10 51 16 42 1 30 -20 -16z"/>
<path d="M3176 521 c-3 -5 0 -14 8 -20 10 -8 16 -8 25 2 6 8 8 17 4 20 -9 10
-31 9 -37 -2z"/>
<path d="M1821 466 c-12 -14 -5 -26 16 -26 15 0 18 26 4 34 -5 3 -14 0 -20 -8z"/>
<path d="M2144 429 c-10 -17 13 -36 27 -22 12 12 4 33 -11 33 -5 0 -12 -5 -16
-11z"/>
<path d="M2684 429 c-10 -17 13 -36 27 -22 12 12 4 33 -11 33 -5 0 -12 -5 -16
-11z"/>
</g>
</svg>
